<?xml version="1.0" encoding="UTF-8" standalone="no"?>
<!-- Created with Inkscape (http://www.inkscape.org/) -->

<svg
   width="89mm"
   height="89mm"
   viewBox="0 0 89 89"
   version="1.1"
   id="svg5"
   inkscape:version="1.1.2 (b8e25be8, 2022-02-05)"
   sodipodi:docname="ockti-logo.svg"
   xmlns:inkscape="http://www.inkscape.org/namespaces/inkscape"
   xmlns:sodipodi="http://sodipodi.sourceforge.net/DTD/sodipodi-0.dtd"
   xmlns="http://www.w3.org/2000/svg"
   xmlns:svg="http://www.w3.org/2000/svg">
  <sodipodi:namedview
     id="namedview7"
     pagecolor="#ffffff"
     bordercolor="#666666"
     borderopacity="1.0"
     inkscape:pageshadow="2"
     inkscape:pageopacity="0.0"
     inkscape:pagecheckerboard="0"
     inkscape:document-units="mm"
     showgrid="false"
     width="209mm"
     inkscape:zoom="0.51884756"
     inkscape:cx="284.28388"
     inkscape:cy="410.5252"
     inkscape:window-width="1312"
     inkscape:window-height="836"
     inkscape:window-x="0"
     inkscape:window-y="38"
     inkscape:window-maximized="0"
     inkscape:current-layer="layer1">
    <inkscape:grid
       type="xygrid"
       id="grid1887" />
  </sodipodi:namedview>
  <defs
     id="defs2">
    <rect
       x="300"
       y="440"
       width="120"
       height="90"
       id="rect17967" />
    <rect
       x="300"
       y="450"
       width="120"
       height="70"
       id="rect10467" />
    <marker
       style="overflow:visible"
       id="EmptyTriangleOutS"
       refX="0"
       refY="0"
       orient="auto"
       inkscape:stockid="EmptyTriangleOutS"
       inkscape:isstock="true">
      <path
         transform="matrix(0.2,0,0,0.2,-0.6,0)"
         style="fill:context-fill;fill-rule:evenodd;stroke:context-stroke;stroke-width:1pt"
         d="M 5.77,0 -2.88,5 V -5 Z"
         id="path2187" />
    </marker>
    <marker
       style="overflow:visible"
       id="StopM"
       refX="0"
       refY="0"
       orient="auto"
       inkscape:stockid="StopM"
       inkscape:isstock="true">
      <path
         transform="scale(0.4)"
         style="fill:none;fill-opacity:0.75;fill-rule:evenodd;stroke:context-stroke;stroke-width:1pt"
         d="M 0,5.65 V -5.65"
         id="path2193" />
    </marker>
    <marker
       style="overflow:visible"
       id="SemiCircleOut"
       refX="0"
       refY="0"
       orient="auto"
       inkscape:stockid="SemiCircleOut"
       inkscape:isstock="true">
      <path
         transform="matrix(0.6,0,0,0.6,4.2752958,0.4580676)"
         style="fill:context-stroke;fill-rule:evenodd;stroke:context-stroke;stroke-width:1pt"
         d="m -2.5,-0.80913858 c 0,2.75999998 -2.24,4.99999998 -5,4.99999998 v -10 c 2.76,0 5,2.24 5,5.00000002 z"
         id="path2202" />
    </marker>
    <marker
       style="overflow:visible"
       id="Torso"
       refX="0"
       refY="0"
       orient="auto"
       inkscape:stockid="Torso"
       inkscape:isstock="true">
      <g
         transform="scale(0.7)"
         id="g2247">
        <path
           style="fill:none;fill-opacity:0.75;fill-rule:evenodd;stroke:context-stroke;stroke-width:1.25"
           d="m -4.7792281,-3.239542 c 2.350374,0.3659393 5.30026732,1.9375477 5.03715532,3.62748546 C -0.00518779,2.0778819 -2.2126741,2.6176539 -4.5630471,2.2517169 -6.9134221,1.8857769 -8.521035,0.75201414 -8.257922,-0.93792336 -7.994809,-2.6278615 -7.1296041,-3.6054813 -4.7792281,-3.239542 Z"
           id="path2233" />
        <path
           style="fill:none;fill-opacity:0.75;fill-rule:evenodd;stroke:context-stroke;stroke-width:1pt"
           d="M 4.4598789,0.08866574 C -2.5564571,-4.378332 5.2248769,-3.9061806 -0.84829578,-8.7197331"
           id="path2235" />
        <path
           style="fill:none;fill-opacity:0.75;fill-rule:evenodd;stroke:context-stroke;stroke-width:1pt"
           d="M 4.9298719,0.05752074 C -1.3872731,1.7494689 1.8027579,5.4782079 -4.9448731,7.5462725"
           id="path2237" />
        <rect
           style="fill:context-stroke;fill-rule:evenodd;stroke-width:1pt"
           width="2.6366582"
           height="2.7608147"
           x="-10.391706"
           y="-1.7408575"
           transform="matrix(0.527536,-0.849533,0.887668,0.460484,0,0)"
           id="rect2239" />
        <rect
           style="fill:context-stroke;fill-rule:evenodd;stroke-width:1pt"
           width="2.7327356"
           height="2.8614161"
           x="4.9587269"
           y="-7.9629307"
           transform="matrix(0.671205,-0.741272,0.790802,0.612072,0,0)"
           id="rect2241" />
        <path
           style="fill:#ff0000;fill-opacity:0.75;fill-rule:evenodd;stroke:context-stroke;stroke-width:1pt"
           d="m 16.779951,-28.685045 a 0.60731727,0.60731727 0 1 0 -1.214634,0 0.60731727,0.60731727 0 1 0 1.214634,0 z"
           transform="matrix(0,-1.109517,1.109517,0,25.96648,19.71619)"
           id="path2243" />
        <path
           style="fill:#ff0000;fill-opacity:0.75;fill-rule:evenodd;stroke:context-stroke;stroke-width:1pt"
           d="m 16.779951,-28.685045 a 0.60731727,0.60731727 0 1 0 -1.214634,0 0.60731727,0.60731727 0 1 0 1.214634,0 z"
           transform="matrix(0,-1.109517,1.109517,0,26.8245,16.99126)"
           id="path2245" />
      </g>
    </marker>
    <marker
       style="overflow:visible"
       id="CurveOut"
       refX="0"
       refY="0"
       orient="auto"
       inkscape:stockid="CurveOut"
       inkscape:isstock="true">
      <path
         transform="scale(0.6)"
         style="fill:none;fill-rule:evenodd;stroke:context-stroke;stroke-width:1pt"
         d="m -5.4129913,-5.0456926 c 2.76,0 4.99999999,2.24 4.99999999,5.00000002 0,2.75999998 -2.23999999,4.99999998 -4.99999999,4.99999998"
         id="path2208" />
    </marker>
    <marker
       style="overflow:visible"
       id="DiamondSend"
       refX="0"
       refY="0"
       orient="auto"
       inkscape:stockid="DiamondSend"
       inkscape:isstock="true">
      <path
         transform="matrix(0.2,0,0,0.2,-1.2,0)"
         style="fill:context-stroke;fill-rule:evenodd;stroke:context-stroke;stroke-width:1pt"
         d="M 0,-7.0710768 -7.0710894,0 0,7.0710589 7.0710462,0 Z"
         id="path2124" />
    </marker>
    <marker
       style="overflow:visible"
       id="EmptyDiamondL"
       refX="0"
       refY="0"
       orient="auto"
       inkscape:stockid="EmptyDiamondL"
       inkscape:isstock="true">
      <path
         transform="scale(0.8)"
         style="fill:context-fill;fill-rule:evenodd;stroke:context-stroke;stroke-width:1pt"
         d="M 0,-7.0710768 -7.0710894,0 0,7.0710589 7.0710462,0 Z"
         id="path2127" />
    </marker>
    <marker
       style="overflow:visible"
       id="Arrow1Mend"
       refX="0"
       refY="0"
       orient="auto"
       inkscape:stockid="Arrow1Mend"
       inkscape:isstock="true">
      <path
         transform="matrix(-0.4,0,0,-0.4,-4,0)"
         style="fill:context-stroke;fill-rule:evenodd;stroke:context-stroke;stroke-width:1pt"
         d="M 0,0 5,-5 -12.5,0 5,5 Z"
         id="path2030" />
    </marker>
    <marker
       style="overflow:visible"
       id="Arrow2Lend"
       refX="0"
       refY="0"
       orient="auto"
       inkscape:stockid="Arrow2Lend"
       inkscape:isstock="true">
      <path
         transform="matrix(-1.1,0,0,-1.1,-1.1,0)"
         d="M 8.7185878,4.0337352 -2.2072895,0.01601326 8.7185884,-4.0017078 c -1.7454984,2.3720609 -1.7354408,5.6174519 -6e-7,8.035443 z"
         style="fill:context-stroke;fill-rule:evenodd;stroke:context-stroke;stroke-width:0.625;stroke-linejoin:round"
         id="path2042" />
    </marker>
    <marker
       style="overflow:visible"
       id="Tail"
       refX="0"
       refY="0"
       orient="auto"
       inkscape:stockid="Tail"
       inkscape:isstock="true">
      <g
         transform="scale(-1.2)"
         id="g2069">
        <path
           style="fill:none;fill-rule:evenodd;stroke:context-stroke;stroke-width:0.8;stroke-linecap:round"
           d="M -3.8048674,-3.9585227 0.54352094,0"
           id="path2057" />
        <path
           style="fill:none;fill-rule:evenodd;stroke:context-stroke;stroke-width:0.8;stroke-linecap:round"
           d="M -1.2866832,-3.9585227 3.0617053,0"
           id="path2059" />
        <path
           style="fill:none;fill-rule:evenodd;stroke:context-stroke;stroke-width:0.8;stroke-linecap:round"
           d="M 1.3053582,-3.9585227 5.6537466,0"
           id="path2061" />
        <path
           style="fill:none;fill-rule:evenodd;stroke:context-stroke;stroke-width:0.8;stroke-linecap:round"
           d="M -3.8048674,4.1775838 0.54352094,0.21974226"
           id="path2063" />
        <path
           style="fill:none;fill-rule:evenodd;stroke:context-stroke;stroke-width:0.8;stroke-linecap:round"
           d="M -1.2866832,4.1775838 3.0617053,0.21974226"
           id="path2065" />
        <path
           style="fill:none;fill-rule:evenodd;stroke:context-stroke;stroke-width:0.8;stroke-linecap:round"
           d="M 1.3053582,4.1775838 5.6537466,0.21974226"
           id="path2067" />
      </g>
    </marker>
    <marker
       style="overflow:visible"
       id="Arrow1Lend"
       refX="0"
       refY="0"
       orient="auto"
       inkscape:stockid="Arrow1Lend"
       inkscape:isstock="true">
      <path
         transform="matrix(-0.8,0,0,-0.8,-10,0)"
         style="fill:context-stroke;fill-rule:evenodd;stroke:context-stroke;stroke-width:1pt"
         d="M 0,0 5,-5 -12.5,0 5,5 Z"
         id="path2024" />
    </marker>
    <marker
       style="overflow:visible"
       id="Arrow2Mend"
       refX="0"
       refY="0"
       orient="auto"
       inkscape:stockid="Arrow2Mend"
       inkscape:isstock="true">
      <path
         transform="scale(-0.6)"
         d="M 8.7185878,4.0337352 -2.2072895,0.01601326 8.7185884,-4.0017078 c -1.7454984,2.3720609 -1.7354408,5.6174519 -6e-7,8.035443 z"
         style="fill:context-stroke;fill-rule:evenodd;stroke:context-stroke;stroke-width:0.625;stroke-linejoin:round"
         id="path2048" />
    </marker>
    <marker
       style="overflow:visible"
       id="Arrow1Sstart"
       refX="0"
       refY="0"
       orient="auto"
       inkscape:stockid="Arrow1Sstart"
       inkscape:isstock="true">
      <path
         transform="matrix(0.2,0,0,0.2,1.2,0)"
         style="fill:context-stroke;fill-rule:evenodd;stroke:context-stroke;stroke-width:1pt"
         d="M 0,0 5,-5 -12.5,0 5,5 Z"
         id="path2033" />
    </marker>
    <marker
       style="overflow:visible"
       id="Arrow1Lstart"
       refX="0"
       refY="0"
       orient="auto"
       inkscape:stockid="Arrow1Lstart"
       inkscape:isstock="true">
      <path
         transform="matrix(0.8,0,0,0.8,10,0)"
         style="fill:context-stroke;fill-rule:evenodd;stroke:context-stroke;stroke-width:1pt"
         d="M 0,0 5,-5 -12.5,0 5,5 Z"
         id="path2021" />
    </marker>
  </defs>
  <g
     inkscape:label="Layer 1"
     inkscape:groupmode="layer"
     id="layer1">
    <text
       xml:space="preserve"
       transform="scale(0.26458333)"
       id="text10465"
       style="font-style:normal;font-weight:normal;font-size:40px;line-height:1.25;font-family:sans-serif;white-space:pre;shape-inside:url(#rect10467);fill:#000000;fill-opacity:1;stroke:none"><tspan
         x="300"
         y="556.49321"
         id="tspan19514"><tspan
           dx="0 31.484375 27.96875 27.734375 24.6875"
           id="tspan19512">OCKTI</tspan></tspan></text>
    <text
       xml:space="preserve"
       transform="scale(0.26458333)"
       id="text17965"
       style="font-style:normal;font-weight:normal;font-size:40px;line-height:1.25;font-family:sans-serif;white-space:pre;shape-inside:url(#rect17967);fill:#000000;fill-opacity:1;stroke:none" />
    <g
       id="g19430"
       transform="translate(-50.95598,-82.630192)">
      <circle
         style="fill:#ff4500;fill-opacity:1;fill-rule:evenodd;stroke:#000000;stroke-width:1.065;stroke-miterlimit:4;stroke-dasharray:none;stroke-opacity:1"
         id="path31"
         cx="95.55278"
         cy="127.94218"
         r="21.041531" />
      <path
         style="fill:none;stroke:#000000;stroke-width:2.00006;stroke-linecap:butt;stroke-linejoin:miter;stroke-miterlimit:4.1;stroke-dasharray:none;stroke-opacity:1"
         d="m 95.37458,107.21903 c 0,0 -3.762377,-21.54836 20.18022,-20.864315"
         id="path676" />
      <path
         style="fill:none;stroke:#000000;stroke-width:2.00006;stroke-linecap:butt;stroke-linejoin:miter;stroke-miterlimit:4.1;stroke-dasharray:none;stroke-opacity:1"
         d="m 110.06662,112.71241 c 0,0 12.57652,-17.897286 29.02286,-0.48372"
         id="path676-6" />
      <path
         style="opacity:1;fill:none;stroke:#000000;stroke-width:2.00006;stroke-linecap:butt;stroke-linejoin:miter;stroke-miterlimit:4.1;stroke-dasharray:none;stroke-opacity:1"
         d="m 116.41661,126.99998 c 0,0 14.19933,-2.47923 19.17926,9.39455 1.15476,2.75343 1.81381,6.27875 1.68505,10.78564"
         id="path676-8"
         sodipodi:nodetypes="csc" />
      <path
         style="fill:none;stroke:#000000;stroke-width:2.00006;stroke-linecap:butt;stroke-linejoin:miter;stroke-miterlimit:4.1;stroke-dasharray:none;stroke-opacity:1"
         d="m 110.64117,142.42708 c 0,0 11.79354,8.28734 6.91889,20.20474 -1.13047,2.76354 -3.15725,5.72225 -6.43507,8.81811"
         id="path676-8-6"
         sodipodi:nodetypes="csc" />
      <path
         style="fill:none;stroke:#000000;stroke-width:2.00006;stroke-linecap:butt;stroke-linejoin:miter;stroke-miterlimit:4.1;stroke-dasharray:none;stroke-opacity:1"
         d="m 95.249965,148.69578 c 0,0 2.479254,14.19932 -9.394534,19.17926 -2.753439,1.15476 -6.278691,1.8138 -10.785629,1.68505"
         id="path676-8-9"
         sodipodi:nodetypes="csc" />
      <path
         style="fill:none;stroke:#000000;stroke-width:2.00006;stroke-linecap:butt;stroke-linejoin:miter;stroke-miterlimit:4.1;stroke-dasharray:none;stroke-opacity:1"
         d="m 80.351984,142.39118 c 0,0 -8.287343,11.79353 -20.204698,6.91889 -2.763552,-1.13041 -5.72226,-3.15717 -8.818122,-6.43516"
         id="path676-8-9-4"
         sodipodi:nodetypes="csc" />
      <path
         style="fill:none;stroke:#000000;stroke-width:2.00006;stroke-linecap:butt;stroke-linejoin:miter;stroke-miterlimit:4.1;stroke-dasharray:none;stroke-opacity:1"
         d="m 74.839285,127.07183 c 0,0 -14.199324,2.47927 -19.179225,-9.39448 -1.154807,-2.75359 -1.813801,-6.27879 -1.685072,-10.78559"
         id="path676-8-9-8"
         sodipodi:nodetypes="csc" />
      <path
         style="fill:none;stroke:#000000;stroke-width:2.00006;stroke-linecap:butt;stroke-linejoin:miter;stroke-miterlimit:4.1;stroke-dasharray:none;stroke-opacity:1"
         d="m 81.446224,112.63106 c 0,0 -11.793538,-8.28731 -6.918818,-20.204613 1.130394,-2.763539 3.157153,-5.722251 6.435065,-8.818115"
         id="path676-8-9-8-8"
         sodipodi:nodetypes="csc" />
      <text
         xml:space="preserve"
         style="font-style:normal;font-variant:normal;font-weight:bold;font-stretch:normal;font-size:11.6417px;line-height:1.25;font-family:Palatino;-inkscape-font-specification:'Palatino, Bold';font-variant-ligatures:normal;font-variant-caps:normal;font-variant-numeric:normal;font-variant-east-asian:normal;fill:#000000;fill-opacity:1;stroke:none;stroke-width:0.264583"
         x="75.481842"
         y="131.91995"
         id="text18743"><tspan
           sodipodi:role="line"
           id="tspan18741"
           style="font-style:normal;font-variant:normal;font-weight:bold;font-stretch:normal;font-size:11.6417px;font-family:Palatino;-inkscape-font-specification:'Palatino, Bold';font-variant-ligatures:normal;font-variant-caps:normal;font-variant-numeric:normal;font-variant-east-asian:normal;stroke-width:0.264583"
           x="75.481842"
           y="131.91995">OCKTI</tspan></text>
    </g>
  </g>
</svg>
